<?xml version="1.0" standalone="no"?>
<!DOCTYPE svg PUBLIC "-//W3C//DTD SVG 20010904//EN"
 "http://www.w3.org/TR/2001/REC-SVG-20010904/DTD/svg10.dtd">
<svg version="1.0" xmlns="http://www.w3.org/2000/svg"
 width="960.000000pt" height="960.000000pt" viewBox="0 0 960.000000 960.000000"
 preserveAspectRatio="xMidYMid meet">
<metadata>
Created by potrace 1.11, written by Peter Selinger 2001-2013
</metadata>
<g transform="translate(0.000000,960.000000) scale(0.100000,-0.100000)"
fill="#000000" stroke="none">
<path d="M2645 7720 c-375 -79 -654 -345 -757 -720 l-23 -85 0 -2110 c0 -1986
1 -2114 18 -2185 86 -364 373 -651 737 -737 71 -17 199 -18 2185 -18 l2110 0
85 23 c228 63 426 197 556 378 59 83 128 231 156 334 l23 85 2 2075 c4 2243 5
2155 -48 2312 -118 344 -407 590 -765 653 -76 13 -347 15 -2138 14 -1972 0
-2054 -1 -2141 -19z m4160 -303 c296 -93 519 -316 612 -612 l28 -90 3 -1880
c3 -2090 7 -1963 -65 -2135 -106 -257 -316 -443 -588 -522 l-80 -23 -1915 0
-1915 0 -78 23 c-316 91 -538 313 -629 629 l-23 78 0 1915 0 1915 23 80 c32
109 81 208 150 301 126 170 312 289 522 334 81 18 174 19 1975 17 l1890 -2 90
-28z"/>
<path d="M2950 7433 c-328 -33 -620 -256 -729 -553 -61 -167 -56 2 -56 -2075
0 -1773 1 -1895 18 -1965 76 -324 333 -581 657 -657 70 -17 192 -18 1965 -18
2077 0 1908 -5 2075 56 261 95 457 321 537 619 16 60 18 191 21 1890 2 1294 0
1854 -8 1925 -23 208 -101 366 -255 520 -151 151 -310 230 -510 254 -83 10
-3621 14 -3715 4z m1905 -375 c160 -41 277 -171 304 -338 27 -166 -60 -377
-224 -546 -88 -90 -177 -142 -261 -152 -58 -6 -74 8 -74 67 0 59 33 126 101
205 69 81 120 158 169 255 78 154 77 235 -2 255 -73 18 -382 -40 -425 -80 -14
-13 -30 -24 -36 -24 -13 0 -282 -158 -447 -263 -82 -52 -148 -102 -168 -126
-18 -23 -51 -51 -74 -62 -92 -47 -167 -137 -307 -369 -118 -194 -153 -321
-117 -422 34 -95 186 -240 365 -348 51 -30 160 -100 244 -154 323 -212 459
-408 445 -646 -6 -93 -22 -125 -107 -211 -53 -54 -77 -70 -119 -83 -28 -8 -85
-31 -125 -51 -84 -41 -191 -60 -401 -71 -131 -7 -140 -6 -236 22 -78 22 -100
33 -102 48 -3 20 -12 27 -68 47 -44 17 -157 127 -203 199 -41 65 -87 169 -81
185 7 18 88 58 109 54 11 -2 42 -37 70 -76 58 -83 80 -102 168 -143 210 -99
517 -70 751 71 69 41 106 88 106 133 0 62 -56 156 -147 248 -82 83 -95 91
-257 172 -229 115 -431 268 -512 388 -16 24 -42 59 -58 77 -62 74 -97 192 -98
328 -1 209 59 338 272 592 54 64 138 154 186 201 224 212 228 216 297 246 38
16 100 53 139 82 100 75 426 222 601 271 140 40 222 44 322 19z m1161 -1575
c73 -36 163 -119 199 -184 30 -54 30 -55 28 -199 -1 -80 -9 -218 -17 -308 -9
-90 -21 -218 -26 -285 -6 -67 -26 -279 -45 -472 -65 -654 -77 -825 -81 -1160
-4 -364 1 -345 -91 -345 -67 0 -133 30 -169 77 l-27 36 11 241 c7 133 14 342
17 466 3 124 8 251 11 284 l5 58 -93 -7 c-243 -17 -630 -66 -715 -91 -78 -22
-134 -84 -213 -240 -36 -70 -81 -147 -101 -172 -22 -26 -46 -74 -62 -122 -31
-94 -101 -248 -164 -362 -60 -110 -163 -268 -174 -268 -4 0 -37 20 -73 45 -74
52 -89 81 -75 146 6 23 118 257 251 520 195 387 242 486 246 528 4 47 9 54 65
103 79 68 137 149 203 280 61 121 142 264 357 628 268 454 481 762 562 811 43
27 106 24 171 -8z"/>
<path d="M5904 5108 c-114 -120 -253 -321 -376 -545 -99 -182 -121 -217 -172
-274 -23 -26 -78 -113 -123 -195 -83 -152 -112 -218 -100 -230 9 -9 199 21
402 62 210 43 262 46 301 15 l29 -23 12 89 c18 137 71 669 82 838 22 304 22
325 13 325 -5 0 -36 -28 -68 -62z"/>
</g>
</svg>
